<mxfile host="app.diagrams.net" agent="Mozilla/5.0 (Windows NT 10.0; Win64; x64) AppleWebKit/537.36 (KHTML, like Gecko) Chrome/135.0.0.0 Safari/537.36" version="26.2.6">
  <diagram name="Page-1" id="jDFH54-RLB8jv58WpB95">
    <mxGraphModel dx="1576" dy="778" grid="1" gridSize="10" guides="1" tooltips="1" connect="1" arrows="1" fold="1" page="1" pageScale="1" pageWidth="850" pageHeight="1100" math="0" shadow="0">
      <root>
        <mxCell id="0" />
        <mxCell id="1" parent="0" />
        <mxCell id="mMZGVCM99QTDKP6a0mPT-1" value="Player" style="whiteSpace=wrap;html=1;align=center;" vertex="1" parent="1">
          <mxGeometry x="420" y="260" width="100" height="40" as="geometry" />
        </mxCell>
        <mxCell id="mMZGVCM99QTDKP6a0mPT-2" value="&lt;font style=&quot;font-size: 24px;&quot;&gt;DOTA 2 Solo Rank Match ERD&lt;/font&gt;" style="rounded=0;whiteSpace=wrap;html=1;" vertex="1" parent="1">
          <mxGeometry x="365" y="40" width="210" height="120" as="geometry" />
        </mxCell>
        <mxCell id="mMZGVCM99QTDKP6a0mPT-3" value="Find Match" style="shape=rhombus;perimeter=rhombusPerimeter;whiteSpace=wrap;html=1;align=center;" vertex="1" parent="1">
          <mxGeometry x="230" y="250" width="120" height="60" as="geometry" />
        </mxCell>
        <mxCell id="mMZGVCM99QTDKP6a0mPT-5" value="Ranked Queue" style="whiteSpace=wrap;html=1;align=center;" vertex="1" parent="1">
          <mxGeometry x="70" y="260" width="100" height="40" as="geometry" />
        </mxCell>
        <mxCell id="mMZGVCM99QTDKP6a0mPT-10" value="Preferred&amp;nbsp;&lt;div&gt;Role&lt;/div&gt;" style="ellipse;whiteSpace=wrap;html=1;align=center;" vertex="1" parent="1">
          <mxGeometry x="560" y="200" width="100" height="40" as="geometry" />
        </mxCell>
        <mxCell id="mMZGVCM99QTDKP6a0mPT-11" value="" style="endArrow=none;html=1;rounded=0;entryX=0;entryY=0.5;entryDx=0;entryDy=0;exitX=1;exitY=0;exitDx=0;exitDy=0;" edge="1" parent="1" source="mMZGVCM99QTDKP6a0mPT-1" target="mMZGVCM99QTDKP6a0mPT-10">
          <mxGeometry relative="1" as="geometry">
            <mxPoint x="520" y="310" as="sourcePoint" />
            <mxPoint x="280" y="400" as="targetPoint" />
          </mxGeometry>
        </mxCell>
        <mxCell id="mMZGVCM99QTDKP6a0mPT-13" value="Username" style="ellipse;whiteSpace=wrap;html=1;align=center;" vertex="1" parent="1">
          <mxGeometry x="420" y="180" width="100" height="40" as="geometry" />
        </mxCell>
        <mxCell id="mMZGVCM99QTDKP6a0mPT-14" value="" style="endArrow=none;html=1;rounded=0;entryX=0.5;entryY=1;entryDx=0;entryDy=0;exitX=0.5;exitY=0;exitDx=0;exitDy=0;" edge="1" parent="1" source="mMZGVCM99QTDKP6a0mPT-1" target="mMZGVCM99QTDKP6a0mPT-13">
          <mxGeometry relative="1" as="geometry">
            <mxPoint x="130" y="410" as="sourcePoint" />
            <mxPoint x="130" y="450" as="targetPoint" />
          </mxGeometry>
        </mxCell>
        <mxCell id="mMZGVCM99QTDKP6a0mPT-15" value="Solo MMR" style="ellipse;whiteSpace=wrap;html=1;align=center;" vertex="1" parent="1">
          <mxGeometry x="290" y="200" width="100" height="40" as="geometry" />
        </mxCell>
        <mxCell id="mMZGVCM99QTDKP6a0mPT-16" value="" style="endArrow=none;html=1;rounded=0;entryX=0;entryY=0;entryDx=0;entryDy=0;exitX=1;exitY=0.5;exitDx=0;exitDy=0;" edge="1" parent="1" source="mMZGVCM99QTDKP6a0mPT-15" target="mMZGVCM99QTDKP6a0mPT-1">
          <mxGeometry relative="1" as="geometry">
            <mxPoint x="130" y="410" as="sourcePoint" />
            <mxPoint x="130" y="450" as="targetPoint" />
          </mxGeometry>
        </mxCell>
        <mxCell id="mMZGVCM99QTDKP6a0mPT-19" value="Queue Time" style="ellipse;whiteSpace=wrap;html=1;align=center;" vertex="1" parent="1">
          <mxGeometry x="70" y="340" width="100" height="40" as="geometry" />
        </mxCell>
        <mxCell id="mMZGVCM99QTDKP6a0mPT-20" value="" style="endArrow=none;html=1;rounded=0;entryX=0.5;entryY=0;entryDx=0;entryDy=0;exitX=0.5;exitY=1;exitDx=0;exitDy=0;" edge="1" parent="1" source="mMZGVCM99QTDKP6a0mPT-5" target="mMZGVCM99QTDKP6a0mPT-19">
          <mxGeometry relative="1" as="geometry">
            <mxPoint x="190" y="360" as="sourcePoint" />
            <mxPoint x="190" y="410" as="targetPoint" />
          </mxGeometry>
        </mxCell>
        <mxCell id="mMZGVCM99QTDKP6a0mPT-21" value="Region" style="ellipse;whiteSpace=wrap;html=1;align=center;" vertex="1" parent="1">
          <mxGeometry x="70" y="190" width="100" height="40" as="geometry" />
        </mxCell>
        <mxCell id="mMZGVCM99QTDKP6a0mPT-39" value="Accept Match" style="shape=rhombus;perimeter=rhombusPerimeter;whiteSpace=wrap;html=1;align=center;" vertex="1" parent="1">
          <mxGeometry x="570" y="250" width="120" height="60" as="geometry" />
        </mxCell>
        <mxCell id="mMZGVCM99QTDKP6a0mPT-42" value="Gameplay" style="whiteSpace=wrap;html=1;align=center;" vertex="1" parent="1">
          <mxGeometry x="750" y="260" width="100" height="40" as="geometry" />
        </mxCell>
        <mxCell id="mMZGVCM99QTDKP6a0mPT-44" value="Kills" style="ellipse;whiteSpace=wrap;html=1;align=center;" vertex="1" parent="1">
          <mxGeometry x="750" y="180" width="100" height="40" as="geometry" />
        </mxCell>
        <mxCell id="mMZGVCM99QTDKP6a0mPT-45" value="Death" style="ellipse;whiteSpace=wrap;html=1;align=center;" vertex="1" parent="1">
          <mxGeometry x="790" y="330" width="100" height="40" as="geometry" />
        </mxCell>
        <mxCell id="mMZGVCM99QTDKP6a0mPT-46" value="Death" style="ellipse;whiteSpace=wrap;html=1;align=center;" vertex="1" parent="1">
          <mxGeometry x="880" y="260" width="100" height="40" as="geometry" />
        </mxCell>
        <mxCell id="mMZGVCM99QTDKP6a0mPT-47" value="" style="endArrow=none;html=1;rounded=0;exitX=0.5;exitY=1;exitDx=0;exitDy=0;" edge="1" parent="1" source="mMZGVCM99QTDKP6a0mPT-42" target="mMZGVCM99QTDKP6a0mPT-45">
          <mxGeometry relative="1" as="geometry">
            <mxPoint x="480" y="360" as="sourcePoint" />
            <mxPoint x="480" y="410" as="targetPoint" />
          </mxGeometry>
        </mxCell>
        <mxCell id="mMZGVCM99QTDKP6a0mPT-48" value="" style="endArrow=none;html=1;rounded=0;exitX=0.5;exitY=0;exitDx=0;exitDy=0;entryX=0.5;entryY=1;entryDx=0;entryDy=0;" edge="1" parent="1" source="mMZGVCM99QTDKP6a0mPT-42" target="mMZGVCM99QTDKP6a0mPT-44">
          <mxGeometry relative="1" as="geometry">
            <mxPoint x="790" y="360" as="sourcePoint" />
            <mxPoint x="790" y="410" as="targetPoint" />
          </mxGeometry>
        </mxCell>
        <mxCell id="mMZGVCM99QTDKP6a0mPT-49" value="" style="endArrow=none;html=1;rounded=0;entryX=0;entryY=0.5;entryDx=0;entryDy=0;exitX=1;exitY=0.5;exitDx=0;exitDy=0;" edge="1" parent="1" source="mMZGVCM99QTDKP6a0mPT-42" target="mMZGVCM99QTDKP6a0mPT-46">
          <mxGeometry relative="1" as="geometry">
            <mxPoint x="120" y="340" as="sourcePoint" />
            <mxPoint x="140" y="340" as="targetPoint" />
          </mxGeometry>
        </mxCell>
        <mxCell id="mMZGVCM99QTDKP6a0mPT-50" value="Finish Game" style="whiteSpace=wrap;html=1;align=center;" vertex="1" parent="1">
          <mxGeometry x="240" y="430" width="100" height="40" as="geometry" />
        </mxCell>
        <mxCell id="mMZGVCM99QTDKP6a0mPT-54" value="" style="edgeStyle=entityRelationEdgeStyle;fontSize=12;html=1;endArrow=ERoneToMany;rounded=0;entryX=0;entryY=0.5;entryDx=0;entryDy=0;exitX=1;exitY=0.5;exitDx=0;exitDy=0;" edge="1" parent="1" source="mMZGVCM99QTDKP6a0mPT-3" target="mMZGVCM99QTDKP6a0mPT-1">
          <mxGeometry width="100" height="100" relative="1" as="geometry">
            <mxPoint x="540" y="440" as="sourcePoint" />
            <mxPoint x="640" y="340" as="targetPoint" />
            <Array as="points">
              <mxPoint x="550" y="330" />
            </Array>
          </mxGeometry>
        </mxCell>
        <mxCell id="mMZGVCM99QTDKP6a0mPT-62" value="Post Match Feedback" style="whiteSpace=wrap;html=1;align=center;" vertex="1" parent="1">
          <mxGeometry x="600" y="445" width="100" height="40" as="geometry" />
        </mxCell>
        <mxCell id="mMZGVCM99QTDKP6a0mPT-63" value="Commend" style="ellipse;whiteSpace=wrap;html=1;align=center;" vertex="1" parent="1">
          <mxGeometry x="610" y="510" width="100" height="40" as="geometry" />
        </mxCell>
        <mxCell id="mMZGVCM99QTDKP6a0mPT-64" value="Report" style="ellipse;whiteSpace=wrap;html=1;align=center;" vertex="1" parent="1">
          <mxGeometry x="760" y="445" width="100" height="40" as="geometry" />
        </mxCell>
        <mxCell id="mMZGVCM99QTDKP6a0mPT-65" value="Win&lt;br&gt;+mmr" style="ellipse;whiteSpace=wrap;html=1;align=center;" vertex="1" parent="1">
          <mxGeometry x="90" y="430" width="100" height="40" as="geometry" />
        </mxCell>
        <mxCell id="mMZGVCM99QTDKP6a0mPT-66" value="Loss&lt;br&gt;-mmr" style="ellipse;whiteSpace=wrap;html=1;align=center;" vertex="1" parent="1">
          <mxGeometry x="240" y="520" width="100" height="40" as="geometry" />
        </mxCell>
        <mxCell id="mMZGVCM99QTDKP6a0mPT-70" value="" style="edgeStyle=entityRelationEdgeStyle;fontSize=12;html=1;endArrow=ERoneToMany;rounded=0;entryX=1;entryY=0.5;entryDx=0;entryDy=0;exitX=0;exitY=0.5;exitDx=0;exitDy=0;" edge="1" parent="1" source="mMZGVCM99QTDKP6a0mPT-39" target="mMZGVCM99QTDKP6a0mPT-1">
          <mxGeometry width="100" height="100" relative="1" as="geometry">
            <mxPoint x="360" y="290" as="sourcePoint" />
            <mxPoint x="430" y="290" as="targetPoint" />
            <Array as="points">
              <mxPoint x="560" y="340" />
            </Array>
          </mxGeometry>
        </mxCell>
        <mxCell id="mMZGVCM99QTDKP6a0mPT-74" value="" style="endArrow=none;html=1;rounded=0;exitX=0.5;exitY=1;exitDx=0;exitDy=0;" edge="1" parent="1" source="mMZGVCM99QTDKP6a0mPT-21">
          <mxGeometry relative="1" as="geometry">
            <mxPoint x="130" y="310" as="sourcePoint" />
            <mxPoint x="120" y="260" as="targetPoint" />
          </mxGeometry>
        </mxCell>
        <mxCell id="mMZGVCM99QTDKP6a0mPT-75" value="" style="line;strokeWidth=1;rotatable=0;dashed=0;labelPosition=right;align=left;verticalAlign=middle;spacingTop=0;spacingLeft=6;points=[];portConstraint=eastwest;" vertex="1" parent="1">
          <mxGeometry x="190" y="445" width="50" height="10" as="geometry" />
        </mxCell>
        <mxCell id="mMZGVCM99QTDKP6a0mPT-77" value="" style="endArrow=none;html=1;rounded=0;exitX=0.5;exitY=0;exitDx=0;exitDy=0;entryX=0.5;entryY=1;entryDx=0;entryDy=0;" edge="1" parent="1" source="mMZGVCM99QTDKP6a0mPT-63" target="mMZGVCM99QTDKP6a0mPT-62">
          <mxGeometry relative="1" as="geometry">
            <mxPoint x="480" y="270" as="sourcePoint" />
            <mxPoint x="520" y="280" as="targetPoint" />
          </mxGeometry>
        </mxCell>
        <mxCell id="mMZGVCM99QTDKP6a0mPT-78" value="" style="endArrow=none;html=1;rounded=0;entryX=0.5;entryY=1;entryDx=0;entryDy=0;exitX=0.5;exitY=0;exitDx=0;exitDy=0;" edge="1" parent="1" source="mMZGVCM99QTDKP6a0mPT-66" target="mMZGVCM99QTDKP6a0mPT-50">
          <mxGeometry relative="1" as="geometry">
            <mxPoint x="490" y="280" as="sourcePoint" />
            <mxPoint x="490" y="240" as="targetPoint" />
          </mxGeometry>
        </mxCell>
        <mxCell id="mMZGVCM99QTDKP6a0mPT-79" value="" style="line;strokeWidth=1;rotatable=0;dashed=0;labelPosition=right;align=left;verticalAlign=middle;spacingTop=0;spacingLeft=6;points=[];portConstraint=eastwest;" vertex="1" parent="1">
          <mxGeometry x="700" y="460" width="60" height="10" as="geometry" />
        </mxCell>
        <mxCell id="mMZGVCM99QTDKP6a0mPT-80" value="End Match" style="shape=rhombus;perimeter=rhombusPerimeter;whiteSpace=wrap;html=1;align=center;" vertex="1" parent="1">
          <mxGeometry x="230" y="340" width="120" height="60" as="geometry" />
        </mxCell>
        <mxCell id="mMZGVCM99QTDKP6a0mPT-81" value="Give Feedback" style="shape=rhombus;perimeter=rhombusPerimeter;whiteSpace=wrap;html=1;align=center;" vertex="1" parent="1">
          <mxGeometry x="600" y="330" width="120" height="60" as="geometry" />
        </mxCell>
        <mxCell id="mMZGVCM99QTDKP6a0mPT-82" value="" style="edgeStyle=entityRelationEdgeStyle;fontSize=12;html=1;endArrow=ERoneToMany;rounded=0;entryX=0;entryY=0.75;entryDx=0;entryDy=0;exitX=1;exitY=0.5;exitDx=0;exitDy=0;" edge="1" parent="1" source="mMZGVCM99QTDKP6a0mPT-80" target="mMZGVCM99QTDKP6a0mPT-1">
          <mxGeometry width="100" height="100" relative="1" as="geometry">
            <mxPoint x="370" y="340" as="sourcePoint" />
            <mxPoint x="430" y="290" as="targetPoint" />
            <Array as="points">
              <mxPoint x="560" y="340" />
            </Array>
          </mxGeometry>
        </mxCell>
        <mxCell id="mMZGVCM99QTDKP6a0mPT-83" value="" style="edgeStyle=entityRelationEdgeStyle;fontSize=12;html=1;endArrow=ERoneToMany;rounded=0;entryX=1;entryY=0.75;entryDx=0;entryDy=0;exitX=0;exitY=0.5;exitDx=0;exitDy=0;" edge="1" parent="1" source="mMZGVCM99QTDKP6a0mPT-81" target="mMZGVCM99QTDKP6a0mPT-1">
          <mxGeometry width="100" height="100" relative="1" as="geometry">
            <mxPoint x="360" y="360" as="sourcePoint" />
            <mxPoint x="430" y="300" as="targetPoint" />
            <Array as="points">
              <mxPoint x="570" y="350" />
            </Array>
          </mxGeometry>
        </mxCell>
        <mxCell id="mMZGVCM99QTDKP6a0mPT-98" value="" style="edgeStyle=entityRelationEdgeStyle;fontSize=12;html=1;endArrow=ERmandOne;rounded=0;exitX=0;exitY=0.5;exitDx=0;exitDy=0;entryX=1;entryY=0.5;entryDx=0;entryDy=0;" edge="1" parent="1" source="mMZGVCM99QTDKP6a0mPT-3" target="mMZGVCM99QTDKP6a0mPT-5">
          <mxGeometry width="100" height="100" relative="1" as="geometry">
            <mxPoint x="370" y="320" as="sourcePoint" />
            <mxPoint x="470" y="220" as="targetPoint" />
          </mxGeometry>
        </mxCell>
      </root>
    </mxGraphModel>
  </diagram>
</mxfile>
